<svg t="1693743039659" class="icon" viewBox="0 0 1042 1024" version="1.1" xmlns="http://www.w3.org/2000/svg" p-id="1026" width="48" height="48"><path d="M697.782857 797.696l-103.168 103.716571 51.84 51.565715 103.186286-103.68-51.858286-51.602286zM323.84 791.753143l-103.222857 103.661714L272.457143 947.017143l103.222857-103.661714L323.84 791.771429zM508.617143 791.954286l-103.222857 103.68 51.821714 51.602285 103.222857-103.661714-51.821714-51.602286z" fill="#4C4C4C" p-id="1027"></path><path d="M965.485714 488.228571c0-111.542857-93.257143-202.971429-206.628571-202.971428H749.714286C746.057143 168.228571 647.314286 73.142857 528.457143 73.142857c-120.685714 0-219.428571 95.085714-221.257143 212.114286h-9.142857c-113.371429 0-206.628571 91.428571-206.628572 202.971428 0 100.571429 73.142857 182.857143 170.057143 199.314286l-87.771428 87.771429 51.2 51.2 104.228571-104.228572-31.085714-31.085714h144.457143l-84.114286 84.114286 51.2 51.2 104.228571-104.228572-31.085714-31.085714h144.457143l-84.114286 84.114286 51.2 51.2 104.228572-104.228572-31.085715-31.085714h109.714286c3.657143 0 7.314286 0 10.971429-1.828571 10.971429-1.828571 23.771429-3.657143 34.742857-7.314286l-93.257143 93.257143 51.2 51.2 104.228571-104.228572-45.714285-45.714285c73.142857-29.257143 126.171429-102.4 126.171428-188.342858z m-193.828571 129.828572h-475.428572c-73.142857 0-133.485714-58.514286-133.485714-129.828572 0-71.314286 60.342857-129.828571 133.485714-129.828571 12.8 0 27.428571 1.828571 40.228572 5.485714 12.8 3.657143 25.6 0 34.742857-7.314285 9.142857-9.142857 14.628571-21.942857 10.971429-34.742858-1.828571-9.142857-3.657143-20.114286-3.657143-29.257142 0-80.457143 67.657143-144.457143 149.942857-144.457143 82.285714 0 149.942857 65.828571 149.942857 144.457143 0 9.142857-1.828571 20.114286-3.657143 29.257142-1.828571 12.8 1.828571 25.6 10.971429 34.742858s23.771429 10.971429 34.742857 7.314285c12.8-3.657143 25.6-5.485714 40.228571-5.485714 73.142857 0 133.485714 58.514286 133.485715 129.828571-1.828571 67.657143-53.028571 124.342857-122.514286 129.828572z" fill="#4C4C4C" p-id="1028"></path></svg>